<?xml version="1.0" standalone="no"?>
<!DOCTYPE svg PUBLIC "-//W3C//DTD SVG 20010904//EN"
 "http://www.w3.org/TR/2001/REC-SVG-20010904/DTD/svg10.dtd">
<svg version="1.0" xmlns="http://www.w3.org/2000/svg"
 width="54.000000pt" height="54.000000pt" viewBox="0 0 54.000000 54.000000"
 preserveAspectRatio="xMidYMid meet">
<metadata>
Created by potrace 1.10, written by Peter Selinger 2001-2011
</metadata>
<g transform="translate(0.000000,54.000000) scale(0.100000,-0.100000)"
fill="#fcfcfc" stroke="none">
<path d="M218 488 c-1 -24 -1 -61 0 -83 1 -29 -1 -34 -7 -20 -7 16 -9 14 -15
-18 -4 -20 -11 -37 -16 -37 -4 0 -11 -24 -15 -52 -9 -69 -27 -95 -73 -107 -21
-6 -46 -16 -56 -24 -15 -11 -16 -16 -4 -42 18 -42 71 -95 94 -95 10 1 29 9 42
20 l23 19 -21 21 c-24 24 -22 43 4 48 15 3 16 1 4 -17 -7 -11 -9 -24 -5 -28 5
-4 11 -2 15 4 4 7 24 19 45 28 22 9 37 22 37 33 1 16 1 16 11 -1 5 -9 27 -24
47 -32 20 -9 40 -21 45 -28 5 -7 7 -2 4 15 -3 20 0 25 11 20 10 -3 13 -1 8 6
-3 6 -31 16 -62 23 l-55 12 3 136 c3 120 5 136 21 139 12 3 17 -3 17 -20 1
-20 2 -21 11 -6 5 10 8 30 5 45 -2 16 -5 40 -5 56 -1 19 -6 27 -18 27 -15 0
-16 -2 -3 -10 13 -8 12 -10 -2 -10 -10 0 -18 5 -18 12 0 6 -7 3 -15 -8 -10
-12 -14 -14 -12 -4 2 8 2 12 0 8 -3 -5 -12 -8 -21 -8 -15 0 -15 2 -2 10 13 8
12 10 -2 10 -14 0 -18 -9 -20 -42z m50 -21 c3 -22 -1 -27 -20 -28 -22 -2 -22
-2 -2 -6 21 -4 22 -9 23 -142 l1 -138 -55 -12 c-30 -7 -57 -17 -60 -22 -4 -5
-17 -2 -31 7 -25 17 -33 37 -11 29 15 -6 57 54 57 83 0 12 5 22 10 22 6 0 10
15 11 33 0 17 5 41 10 52 7 15 8 12 4 -15 -5 -33 -4 -33 6 -10 10 22 15 68 18
158 1 34 35 25 39 -11z m53 21 c0 -7 2 -22 4 -33 3 -16 -1 -20 -20 -20 -20 0
-25 5 -25 26 0 14 3 29 7 32 11 12 33 8 34 -5z m-201 -374 c19 -22 30 -44 28
-57 -5 -35 -37 -26 -71 20 -25 35 -28 45 -17 58 18 22 24 19 60 -21z"/>
<path d="M231 304 c0 -11 3 -14 6 -6 3 7 2 16 -1 19 -3 4 -6 -2 -5 -13z"/>
<path d="M335 378 c-4 -15 -2 -40 4 -55 10 -27 11 -27 5 7 -4 26 -3 31 5 20 6
-8 11 -32 11 -53 0 -21 4 -36 8 -33 5 3 7 -7 5 -22 -4 -30 48 -99 67 -87 18
11 11 -2 -20 -35 -16 -18 -30 -38 -30 -46 0 -8 -4 -14 -10 -14 -17 0 -10 -14
21 -38 l29 -24 38 39 c30 31 62 81 62 98 0 7 -64 35 -81 35 -25 0 -59 47 -59
81 0 16 -4 29 -10 29 -5 0 -10 10 -10 23 0 12 -7 40 -14 62 -14 40 -14 40 -21
13z m165 -259 c0 -4 -6 -14 -13 -21 -7 -7 -21 -25 -31 -40 -23 -35 -34 -35
-46 -2 -11 28 9 65 45 82 20 9 45 -1 45 -19z"/>
<path d="M411 314 c0 -11 3 -14 6 -6 3 7 2 16 -1 19 -3 4 -6 -2 -5 -13z"/>
</g>
</svg>
