<?xml version="1.0" encoding="UTF-8"?>
<svg xmlns="http://www.w3.org/2000/svg" xmlns:xlink="http://www.w3.org/1999/xlink" width="54px" height="54px" viewBox="0 0 54 54" version="1.1">
<g id="surface1">
<path style=" stroke:none;fill-rule:nonzero;fill:rgb(98.823529%,98.823529%,98.823529%);fill-opacity:1;" d="M 21.640625 5.160156 C 21.539062 7.542969 21.539062 11.21875 21.640625 13.402344 C 21.738281 16.28125 21.539062 16.777344 20.945312 15.386719 C 20.25 13.796875 20.050781 13.996094 19.457031 17.171875 C 19.058594 19.15625 18.363281 20.84375 17.867188 20.84375 C 17.46875 20.84375 16.777344 23.226562 16.378906 26.007812 C 15.484375 32.855469 13.699219 35.4375 9.132812 36.628906 C 7.046875 37.222656 4.566406 38.21875 3.574219 39.011719 C 2.085938 40.101562 1.984375 40.597656 3.175781 43.179688 C 4.964844 47.347656 10.222656 52.609375 12.507812 52.609375 C 13.5 52.511719 15.386719 51.71875 16.675781 50.625 L 18.960938 48.738281 L 16.875 46.65625 C 14.492188 44.273438 14.691406 42.386719 17.273438 41.890625 C 18.761719 41.59375 18.859375 41.789062 17.667969 43.578125 C 16.972656 44.667969 16.777344 45.960938 17.171875 46.355469 C 17.667969 46.753906 18.265625 46.554688 18.660156 45.960938 C 19.058594 45.265625 21.042969 44.074219 23.128906 43.179688 C 25.3125 42.285156 26.800781 40.996094 26.800781 39.90625 C 26.902344 38.316406 26.902344 38.316406 27.894531 40.003906 C 28.390625 40.898438 30.574219 42.386719 32.558594 43.179688 C 34.542969 44.074219 36.53125 45.265625 37.027344 45.960938 C 37.523438 46.65625 37.71875 46.15625 37.421875 44.46875 C 37.125 42.484375 37.421875 41.988281 38.515625 42.484375 C 39.507812 42.78125 39.804688 42.585938 39.308594 41.890625 C 39.011719 41.292969 36.230469 40.300781 33.15625 39.605469 L 27.695312 38.414062 L 27.992188 24.914062 C 28.289062 13.003906 28.488281 11.414062 30.078125 11.117188 C 31.269531 10.820312 31.765625 11.414062 31.765625 13.101562 C 31.863281 15.089844 31.964844 15.1875 32.855469 13.699219 C 33.351562 12.707031 33.652344 10.71875 33.351562 9.230469 C 33.15625 7.644531 32.855469 5.261719 32.855469 3.671875 C 32.757812 1.785156 32.261719 0.992188 31.070312 0.992188 C 29.582031 0.992188 29.480469 1.191406 30.773438 1.984375 C 32.0625 2.78125 31.964844 2.976562 30.574219 2.976562 C 29.582031 2.976562 28.785156 2.480469 28.785156 1.785156 C 28.785156 1.191406 28.09375 1.488281 27.296875 2.582031 C 26.304688 3.773438 25.90625 3.96875 26.105469 2.976562 C 26.304688 2.183594 26.304688 1.785156 26.105469 2.183594 C 25.808594 2.679688 24.914062 2.976562 24.023438 2.976562 C 22.53125 2.976562 22.53125 2.78125 23.824219 1.984375 C 25.113281 1.191406 25.015625 0.992188 23.625 0.992188 C 22.234375 0.992188 21.839844 1.886719 21.640625 5.160156 Z M 26.601562 7.246094 C 26.902344 9.429688 26.503906 9.925781 24.617188 10.027344 C 22.433594 10.222656 22.433594 10.222656 24.417969 10.621094 C 26.503906 11.019531 26.601562 11.515625 26.703125 24.71875 L 26.800781 38.414062 L 21.34375 39.605469 C 18.363281 40.300781 15.683594 41.292969 15.386719 41.789062 C 14.988281 42.285156 13.699219 41.988281 12.308594 41.09375 C 9.828125 39.40625 9.03125 37.421875 11.21875 38.21875 C 12.707031 38.8125 16.875 32.855469 16.875 29.976562 C 16.875 28.785156 17.371094 27.792969 17.867188 27.792969 C 18.464844 27.792969 18.859375 26.304688 18.960938 24.519531 C 18.960938 22.832031 19.457031 20.449219 19.953125 19.355469 C 20.648438 17.867188 20.746094 18.164062 20.347656 20.84375 C 19.851562 24.121094 19.953125 24.121094 20.945312 21.839844 C 21.9375 19.65625 22.433594 15.089844 22.730469 6.15625 C 22.832031 2.78125 26.207031 3.671875 26.601562 7.246094 Z M 31.863281 5.160156 C 31.863281 5.855469 32.0625 7.34375 32.261719 8.4375 C 32.558594 10.027344 32.160156 10.421875 30.277344 10.421875 C 28.289062 10.421875 27.792969 9.925781 27.792969 7.84375 C 27.792969 6.453125 28.09375 4.964844 28.488281 4.664062 C 29.582031 3.472656 31.765625 3.871094 31.863281 5.160156 Z M 11.910156 42.285156 C 13.796875 44.46875 14.890625 46.65625 14.691406 47.945312 C 14.195312 51.417969 11.019531 50.527344 7.644531 45.960938 C 5.160156 42.484375 4.863281 41.492188 5.957031 40.203125 C 7.742188 38.019531 8.339844 38.316406 11.910156 42.285156 Z M 11.910156 42.285156 "/>
<path style=" stroke:none;fill-rule:nonzero;fill:rgb(98.823529%,98.823529%,98.823529%);fill-opacity:1;" d="M 22.929688 23.425781 C 22.929688 24.519531 23.226562 24.816406 23.527344 24.023438 C 23.824219 23.328125 23.722656 22.433594 23.425781 22.136719 C 23.128906 21.738281 22.832031 22.335938 22.929688 23.425781 Z M 22.929688 23.425781 "/>
<path style=" stroke:none;fill-rule:nonzero;fill:rgb(98.823529%,98.823529%,98.823529%);fill-opacity:1;" d="M 33.253906 16.082031 C 32.855469 17.570312 33.054688 20.050781 33.652344 21.539062 C 34.644531 24.21875 34.742188 24.21875 34.148438 20.84375 C 33.75 18.265625 33.847656 17.769531 34.644531 18.859375 C 35.238281 19.65625 35.734375 22.035156 35.734375 24.121094 C 35.734375 26.207031 36.132812 27.695312 36.53125 27.398438 C 37.027344 27.097656 37.222656 28.09375 37.027344 29.582031 C 36.628906 32.558594 41.789062 39.40625 43.675781 38.21875 C 45.464844 37.125 44.769531 38.414062 41.691406 41.691406 C 40.101562 43.476562 38.714844 45.464844 38.714844 46.257812 C 38.714844 47.050781 38.316406 47.648438 37.71875 47.648438 C 36.03125 47.648438 36.726562 49.035156 39.804688 51.417969 L 42.683594 53.800781 L 46.457031 49.929688 C 49.433594 46.851562 52.609375 41.890625 52.609375 40.203125 C 52.609375 39.507812 46.257812 36.726562 44.570312 36.726562 C 42.089844 36.726562 38.714844 32.0625 38.714844 28.6875 C 38.714844 27.097656 38.316406 25.808594 37.71875 25.808594 C 37.222656 25.808594 36.726562 24.816406 36.726562 23.527344 C 36.726562 22.335938 36.03125 19.554688 35.339844 17.371094 C 33.949219 13.402344 33.949219 13.402344 33.253906 16.082031 Z M 49.632812 41.789062 C 49.632812 42.1875 49.035156 43.179688 48.34375 43.875 C 47.648438 44.570312 46.257812 46.355469 45.265625 47.84375 C 42.980469 51.320312 41.890625 51.320312 40.699219 48.042969 C 39.605469 45.265625 41.59375 41.59375 45.164062 39.90625 C 47.152344 39.011719 49.632812 40.003906 49.632812 41.789062 Z M 49.632812 41.789062 "/>
<path style=" stroke:none;fill-rule:nonzero;fill:rgb(98.823529%,98.823529%,98.823529%);fill-opacity:1;" d="M 40.796875 22.433594 C 40.796875 23.527344 41.09375 23.824219 41.394531 23.03125 C 41.691406 22.335938 41.59375 21.441406 41.292969 21.144531 C 40.996094 20.746094 40.699219 21.34375 40.796875 22.433594 Z M 40.796875 22.433594 "/>
</g>
</svg>
